<?xml version="1.0" encoding="UTF-8"?>
<svg
  id="logo-root"
  xmlns="http://www.w3.org/2000/svg"
  viewBox="0 0 290.68 288.04"
>
  <defs>
    <style>
      .cls-1, .cls-2 {
        fill: #ffffffff;
      }

      .cls-2 {
        stroke: #ffffffff;
        stroke-miterlimit: 10;
        stroke-width: 8px;
      }
    </style>
  </defs>

  <circle fill="currentColor" class="cls-1" cx="37.89" cy="96.58" r="17.29"
    transform="translate(-34.08 21.85) rotate(-22.5)" />

  <g id="oURKXH.tif">
    <g>
      <path class="cls-1" d="M123.57,32.88c-.21,3.31,15.02,100.28,14.75,103.58-.44,5.33-4.94-2.2-4.16,1.28" />
      <path class="cls-1" d="M129.69,95.16C120.77,47.18,63.28,12.38,22.78,49.49,7.04,63.92-.22,83.29,11.38,103.08c17.89,30.52,62.45,15.27,54.17-12.03-.42-1.39-16.02-16.14-6.65-13.41,14.23,4.14,15.98,24.49,7.92,35.91-25.03,35.44-81.21-3.3-63.39-49.32C28.53-.58,105.78-25.53,123.57,32.88" />
    </g>
  </g>

  <circle class="cls-2" cx="135.17" cy="133.42" r="26.31" />

  <g id="oURKXH.tif-2" data-name="oURKXH.tif">
    <g>
      <path class="cls-1" d="M45.8,189.86c3.13-1.11,86.27-53.28,89.42-54.32,5.08-1.69-.08,5.4,2.81,3.32" />
      <path class="cls-1" d="M100.64,159.73c-40.59,27.08-49.96,93.63.1,116.26,19.46,8.8,40.13,7.84,53.75-10.61,21.02-28.46-10.54-63.42-32.38-45.06-1.11.94-8.53,21.08-9.71,11.39-1.8-14.71,16.23-24.34,29.9-21.42,42.43,9.06,28.93,75.96-20.39,77.69-69.45,2.44-122.8-58.76-76.1-98.11" />
    </g>
  </g>

  <g id="oURKXH.tif-3" data-name="oURKXH.tif">
    <g>
      <path class="cls-1" d="M228.06,187.39c-2.57-2.09-90.36-46.01-92.89-48.15-4.08-3.46,4.66-2.74,1.37-4.13" />
      <path class="cls-1" d="M173.81,156.21c44.24,20.6,105.96-5.99,99.27-60.51-2.6-21.2-14.16-38.36-37.01-40.41-35.24-3.16-48.7,41.97-21.66,51.09,1.38.47,22.44-3.67,14.78,2.38-11.63,9.18-29.22-1.21-33.84-14.41-14.32-40.96,49.85-64.2,76.97-22.96,38.18,58.07,13.63,135.45-44.26,116.01" />
    </g>
  </g>

  <circle class="cls-1" cx="223.48" cy="83.61" r="17.29"
    transform="translate(-14.98 91.89) rotate(-22.5)" />

  <circle class="cls-1" cx="137.11" cy="240.56" r="17.29"
    transform="translate(-81.62 70.78) rotate(-22.5)" />
</svg>
